<svg viewBox="0 0 166 32" fill="none" xmlns="http://www.w3.org/2000/svg">
<path d="M32 0H0V32H32V0Z" fill="#EB0A1E"/>
<path d="M16.0001 8.73633C9.95729 8.73633 5.33301 11.8578 5.33301 16.0006C5.33301 20.012 9.84015 23.2649 16.0001 23.2649C22.1601 23.2649 26.6673 20.012 26.6673 16.0006C26.6673 11.8578 22.0416 8.73633 16.0001 8.73633ZM22.6516 11.8578C22.873 12.7535 21.8301 13.8721 18.4744 14.2392C18.2501 11.9535 17.5744 10.0306 16.453 9.62347C17.8797 9.64964 19.2931 9.90281 20.6401 10.3735C21.8059 10.8135 22.5316 11.3735 22.6516 11.8578ZM17.6801 15.9706C17.6801 18.8606 16.8116 20.0592 16.0001 20.0592C15.1887 20.0592 14.3201 18.8606 14.3201 15.9706C14.3201 15.9606 14.3201 15.9506 14.3201 15.9406C14.8587 15.9863 15.4201 16.0106 15.9987 16.0106C16.5773 16.0106 17.1416 15.9863 17.6773 15.9406C17.6773 15.9506 17.6773 15.9606 17.6773 15.9706H17.6801ZM16.0001 14.3549C15.4287 14.3549 14.9101 14.3392 14.4287 14.3092C14.6844 12.4192 15.3616 11.3206 16.0001 11.3206C16.6387 11.3206 17.3187 12.4192 17.5716 14.3092C17.0878 14.3397 16.564 14.3549 16.0001 14.3549ZM9.34872 11.8578C9.46729 11.3778 10.1859 10.8192 11.3487 10.3792C12.7014 9.90485 14.1212 9.64973 15.5544 9.62347C14.4287 10.0249 13.7501 11.9521 13.5259 14.2335C10.1687 13.8663 9.12586 12.7478 9.34872 11.8578ZM6.90729 15.7392C6.89764 14.588 7.2948 13.4704 8.02872 12.5835C8.12158 14.2049 10.3144 15.4149 13.4444 15.8392C13.4444 15.8821 13.4444 15.9235 13.4444 15.9649C13.4444 19.8792 14.4444 21.9535 15.5601 22.382C10.7844 22.2106 6.90872 19.2692 6.90872 15.7392H6.90729ZM16.4287 22.3835C17.5487 21.9363 18.5716 19.7092 18.5716 15.9649C18.5716 15.9235 18.5716 15.8821 18.5716 15.8392C21.7001 15.4106 23.8944 14.2049 23.9873 12.5835C24.7217 13.4702 25.1194 14.5878 25.1101 15.7392C25.1101 19.2735 21.223 22.2192 16.4373 22.3835" fill="white"/>
<path d="M44.9645 9.55664H40.2305V22.3366H44.9645C48.8345 22.3366 51.4445 19.7266 51.4445 15.8746C51.4445 12.0586 48.8345 9.55664 44.9645 9.55664ZM44.6225 20.2126H42.6605V11.6806H44.6405C47.2325 11.6806 48.9065 13.2466 48.9065 15.8926C48.9065 18.5746 47.2685 20.2126 44.6225 20.2126Z" fill="#0C0C0C"/>
<path d="M61.9542 17.9249C61.9542 14.9909 60.2082 13.0469 57.5802 13.0469C54.9702 13.0469 52.9902 14.9909 52.9902 17.7989C52.9902 20.5169 54.9162 22.5149 57.8142 22.5149C59.4342 22.5149 60.7122 22.0469 61.5402 21.4349L60.9822 19.6709C60.2802 20.2109 59.2362 20.6249 58.0482 20.6249C56.4642 20.6249 55.4202 19.7969 55.2762 18.2669H61.9542V17.9249ZM55.3482 16.7369C55.6182 15.5669 56.4642 14.7929 57.5802 14.7929C58.6782 14.7929 59.5062 15.5849 59.6682 16.7369H55.3482Z" fill="#0C0C0C"/>
<path d="M69.4345 13.2285L67.1485 19.6725L64.8625 13.2285H62.3965L65.9605 22.3365H68.2105L71.7385 13.2285H69.4345Z" fill="#0C0C0C"/>
<path d="M81.255 17.9249C81.255 14.9909 79.509 13.0469 76.881 13.0469C74.271 13.0469 72.291 14.9909 72.291 17.7989C72.291 20.5169 74.217 22.5149 77.115 22.5149C78.735 22.5149 80.013 22.0469 80.841 21.4349L80.283 19.6709C79.581 20.2109 78.537 20.6249 77.349 20.6249C75.765 20.6249 74.721 19.7969 74.577 18.2669H81.255V17.9249ZM74.649 16.7369C74.919 15.5669 75.765 14.7929 76.881 14.7929C77.979 14.7929 78.807 15.5849 78.969 16.7369H74.649Z" fill="#0C0C0C"/>
<path d="M85.634 22.5148C86.408 22.5148 86.984 22.3168 87.362 22.1368L87.11 20.3548C86.894 20.4268 86.588 20.5348 86.264 20.5348C85.724 20.5348 85.418 20.2288 85.418 19.4728V8.79883H83.168V19.8328C83.168 21.6868 84.086 22.5148 85.634 22.5148Z" fill="#0C0C0C"/>
<path d="M93.0437 22.5149C95.9597 22.5149 97.9757 20.5169 97.9757 17.7809C97.9757 15.0449 95.9597 13.0469 93.0437 13.0469C90.1097 13.0469 88.0938 15.0449 88.0938 17.7809C88.0938 20.5169 90.1097 22.5149 93.0437 22.5149ZM93.0437 20.4449C91.4957 20.4449 90.4157 19.3829 90.4157 17.7809C90.4157 16.1969 91.4777 15.1169 93.0437 15.1169C94.5917 15.1169 95.6537 16.1969 95.6537 17.7629C95.6537 19.3469 94.6097 20.4449 93.0437 20.4449Z" fill="#0C0C0C"/>
<path d="M105.318 13.0469C104.022 13.0469 102.888 13.5869 102.258 14.5769V13.2269H100.008V26.1149H102.258V20.9489C102.87 21.9749 104.022 22.5149 105.264 22.5149C107.856 22.5149 109.692 20.5169 109.692 17.7809C109.692 15.0269 107.856 13.0469 105.318 13.0469ZM104.814 20.4629C103.356 20.4629 102.186 19.3649 102.186 17.7809C102.186 16.1609 103.374 15.0989 104.832 15.0989C106.362 15.0989 107.37 16.1969 107.37 17.7809C107.37 19.3829 106.326 20.4629 104.814 20.4629Z" fill="#0C0C0C"/>
<path d="M120.103 17.9249C120.103 14.9909 118.357 13.0469 115.729 13.0469C113.119 13.0469 111.139 14.9909 111.139 17.7989C111.139 20.5169 113.065 22.5149 115.963 22.5149C117.583 22.5149 118.861 22.0469 119.689 21.4349L119.131 19.6709C118.429 20.2109 117.385 20.6249 116.197 20.6249C114.613 20.6249 113.569 19.7969 113.425 18.2669H120.103V17.9249ZM113.497 16.7369C113.767 15.5669 114.613 14.7929 115.729 14.7929C116.827 14.7929 117.655 15.5849 117.817 16.7369H113.497Z" fill="#0C0C0C"/>
<path d="M126.498 13.0293C125.598 13.0293 124.788 13.4793 124.266 14.6853V13.2273H122.034V22.3353H124.266V18.0333C124.266 16.2153 124.932 15.2253 126.354 15.2253C126.678 15.2253 127.038 15.3153 127.308 15.4053L127.668 13.2453C127.326 13.1193 126.93 13.0293 126.498 13.0293Z" fill="#0C0C0C"/>
<path d="M131.964 22.5153C134.304 22.5153 135.636 21.3093 135.636 19.4913C135.636 17.8713 134.538 17.1873 132.684 16.7193C131.748 16.4673 130.992 16.2333 130.992 15.5853C130.992 15.0093 131.55 14.7213 132.288 14.7213C133.206 14.7213 134.214 15.1173 134.88 15.5313L135.294 13.8033C134.556 13.3713 133.458 13.0293 132.324 13.0293C130.218 13.0293 128.796 14.1093 128.796 15.9273C128.796 17.6013 130.038 18.1233 131.478 18.6093C132.72 19.0053 133.44 19.2213 133.44 19.8873C133.44 20.5173 132.9 20.8233 132.072 20.8233C131.01 20.8233 129.858 20.3913 129.084 19.7793L128.544 21.5793C129.336 22.1553 130.704 22.5153 131.964 22.5153Z" fill="#0C0C0C"/>
</svg>
